<svg width="18" height="18" viewBox="0 0 18 18" fill="none" xmlns="http://www.w3.org/2000/svg">
<rect x="0.5" y="0.5" width="17" height="17" rx="2.5" stroke="url(#paint0_linear_5_385)"/>
<path d="M6.99999 11.7801L4.68665 9.46672C4.562 9.34207 4.39294 9.27204 4.21665 9.27204C4.04037 9.27204 3.8713 9.34207 3.74665 9.46672C3.622 9.59137 3.55197 9.76043 3.55197 9.93672C3.55197 10.024 3.56916 10.1104 3.60257 10.1911C3.63597 10.2717 3.68493 10.345 3.74665 10.4067L6.53332 13.1934C6.79332 13.4534 7.21332 13.4534 7.47332 13.1934L14.5267 6.14005C14.6513 6.0154 14.7213 5.84634 14.7213 5.67005C14.7213 5.49377 14.6513 5.3247 14.5267 5.20005C14.402 5.0754 14.2329 5.00537 14.0567 5.00537C13.8804 5.00537 13.7113 5.0754 13.5867 5.20005L6.99999 11.7801Z" fill="#3D45FA"/>
<defs>
<linearGradient id="paint0_linear_5_385" x1="1" y1="-4.46621e-07" x2="18" y2="18" gradientUnits="userSpaceOnUse">
<stop stop-color="#403EFC"/>
<stop offset="1" stop-color="#07FFD2"/>
</linearGradient>
</defs>
</svg>
